<svg id="Group_158" data-name="Group 158" xmlns="http://www.w3.org/2000/svg" xmlns:xlink="http://www.w3.org/1999/xlink" width="82.99" height="80.835" viewBox="0 0 82.99 80.835">
  <defs>
    <clipPath id="clip-path">
      <rect id="Rectangle_269" data-name="Rectangle 269" width="82.99" height="80.835" fill="none" stroke="#003a69" stroke-width="3"/>
    </clipPath>
  </defs>
  <g id="Group_100" data-name="Group 100" clip-path="url(#clip-path)">
    <path id="Path_39" data-name="Path 39" d="M74.177,32.121a34.435,34.435,0,0,0-2.079-6.1l4.363-8.555-3.779-4.555L68.9,8.36,61.875,13.7a23.407,23.407,0,0,0-5.068-2.52l-1.952-9.77L49.5,1.4l-5.354-.012L42.321,11.15a23.344,23.344,0,0,0-5.075,2.5L30.125,8.407l-3.793,4.539L22.54,17.485l4.447,8.442a34.343,34.343,0,0,0-2.1,6.087l-8.134,2.345-.01,6.431-.01,6.431,8.127,2.2a34.388,34.388,0,0,0,2.079,6.095l-4.363,8.555,3.779,4.555,3.779,4.555,7.028-5.341a23.384,23.384,0,0,0,5.067,2.52l1.952,9.77,5.354.012,5.354.011,1.827-9.762a23.34,23.34,0,0,0,5.075-2.5l7.121,5.241,3.793-4.539L76.5,64.052l-4.446-8.443a34.393,34.393,0,0,0,2.1-6.086l8.134-2.345.01-6.431.01-6.431ZM27.448,73.176l1.388,6.949,4.981.023,10.367-.023M30.125,8.407H14.778l-3.793,4.539L7.192,17.485l4.447,8.442a34.4,34.4,0,0,0-2.1,6.087L1.407,34.358,1.4,40.79l-.01,6.431,8.127,2.2a34.388,34.388,0,0,0,2.079,6.095L7.231,64.065l3.779,4.555,3.779,4.555M44.148,1.388H28.8L27.487,8.407M49.5,57.177C41.951,57.16,35.846,49.8,35.86,40.739S42,24.344,49.544,24.36,63.193,31.736,63.18,40.8,57.039,57.193,49.5,57.177Zm-7.666-30a17.494,17.494,0,0,1,6,13.619,17.486,17.486,0,0,1-5.995,13.554" transform="translate(-0.35 -0.35)" fill="none" stroke="#003a69" stroke-linecap="round" stroke-linejoin="round" stroke-width="3"/>
    <line id="Line_281" data-name="Line 281" x1="15.348" transform="translate(14.438 72.826)" fill="none" stroke="#003a69" stroke-linecap="round" stroke-linejoin="round" stroke-width="3"/>
    <line id="Line_282" data-name="Line 282" x2="15.348" transform="translate(1.037 46.87)" fill="none" stroke="#003a69" stroke-linecap="round" stroke-linejoin="round" stroke-width="3"/>
    <line id="Line_283" data-name="Line 283" x2="15.348" transform="translate(6.88 63.715)" fill="none" stroke="#003a69" stroke-linecap="round" stroke-linejoin="round" stroke-width="3"/>
    <line id="Line_284" data-name="Line 284" x2="15.348" transform="translate(1.057 34.008)" fill="none" stroke="#003a69" stroke-linecap="round" stroke-linejoin="round" stroke-width="3"/>
    <line id="Line_285" data-name="Line 285" x2="15.348" transform="translate(6.842 17.134)" fill="none" stroke="#003a69" stroke-linecap="round" stroke-linejoin="round" stroke-width="3"/>
  </g>
</svg>
