<svg xmlns="http://www.w3.org/2000/svg" xmlns:xlink="http://www.w3.org/1999/xlink" width="26.806" height="17.443" viewBox="0 0 26.806 17.443">
  <defs>
    <clipPath id="clip-path">
      <rect id="Rectangle_285" data-name="Rectangle 285" width="26.806" height="17.443" fill="#6081a8"/>
    </clipPath>
  </defs>
  <g id="Group_113" data-name="Group 113" clip-path="url(#clip-path)">
    <path id="Path_66" data-name="Path 66" d="M16.737,10.575,29.468.328A1.509,1.509,0,0,0,28.54,0H4.934a1.509,1.509,0,0,0-.928.327Z" transform="translate(-3.334 -0.001)" fill="#6081a8"/>
    <path id="Path_67" data-name="Path 67" d="M121.921,25.754a1.827,1.827,0,0,0,.051-.412V11.565L114.349,17.7Z" transform="translate(-95.167 -9.625)" fill="#6081a8"/>
    <path id="Path_68" data-name="Path 68" d="M23.763,54.429l-4.469,3.6-4.469-3.6L7.078,62.675a1.467,1.467,0,0,0,.413.066H31.1a1.466,1.466,0,0,0,.413-.066Z" transform="translate(-5.891 -45.298)" fill="#6081a8"/>
    <path id="Path_69" data-name="Path 69" d="M7.624,17.7,0,11.565V25.342a1.837,1.837,0,0,0,.051.412Z" transform="translate(0 -9.625)" fill="#6081a8"/>
  </g>
</svg>
