<svg xmlns="http://www.w3.org/2000/svg" xmlns:xlink="http://www.w3.org/1999/xlink" width="18.419" height="24.998" viewBox="0 0 18.419 24.998">
  <defs>
    <clipPath id="clip-path">
      <rect id="Rectangle_284" data-name="Rectangle 284" width="18.419" height="24.998" fill="#6081a8"/>
    </clipPath>
  </defs>
  <g id="Group_111" data-name="Group 111" clip-path="url(#clip-path)">
    <path id="Path_65" data-name="Path 65" d="M18.416,21.734a1.187,1.187,0,0,0-.36-.909l-3.667-3.813-.022-.006a1.235,1.235,0,0,0-.576-.307,1.449,1.449,0,0,0-1.056.1l-1.663.958a.394.394,0,0,1-.17.038.559.559,0,0,1-.157-.007l-.268-.136a3.639,3.639,0,0,1-.727-.557A10.887,10.887,0,0,1,8.656,15.87a15.525,15.525,0,0,1-1.366-2.132,15.319,15.319,0,0,1-1.112-2.256,10.4,10.4,0,0,1-.471-1.564A4.253,4.253,0,0,1,5.6,8.713a.574.574,0,0,1,.081-.161A.393.393,0,0,1,5.8,8.426l1.424-.8A1.471,1.471,0,0,0,7.816,7a1.148,1.148,0,0,0,.108-.827L6.775.881A1.639,1.639,0,0,0,6.505.354.88.88,0,0,0,6.03.037a1.04,1.04,0,0,0-.816.116L1.348,2.336a1.766,1.766,0,0,0-.535.427A3.24,3.24,0,0,0,.279,3.8,5.843,5.843,0,0,0,.057,4.953,12.094,12.094,0,0,0,.014,6.779,14.844,14.844,0,0,0,.356,9.25,22.223,22.223,0,0,0,1.3,12.367,25.838,25.838,0,0,0,3.1,16.1a24.575,24.575,0,0,0,2.889,4.233,20.579,20.579,0,0,0,2.688,2.622,11,11,0,0,0,2.162,1.386,9.5,9.5,0,0,0,1.8.634,2.056,2.056,0,0,0,.7-.025,1.762,1.762,0,0,0,.642-.238l3.859-2.16a1.078,1.078,0,0,0,.571-.821" transform="translate(0 0)" fill="#6081a8"/>
  </g>
</svg>
