<svg xmlns="http://www.w3.org/2000/svg" xmlns:xlink="http://www.w3.org/1999/xlink" width="31.484" height="33.957" viewBox="0 0 31.484 33.957">
  <defs>
    <clipPath id="clip-path">
      <rect id="Rectangle_284" data-name="Rectangle 284" width="20.232" height="27.458" fill="#003a69"/>
    </clipPath>
  </defs>
  <g id="Group_118" data-name="Group 118" transform="translate(14.142) rotate(31)">
    <g id="Group_111" data-name="Group 111" clip-path="url(#clip-path)">
      <path id="Path_65" data-name="Path 65" d="M20.229,23.873a1.3,1.3,0,0,0-.4-1L15.8,18.687l-.025-.007a1.357,1.357,0,0,0-.633-.337,1.591,1.591,0,0,0-1.16.108L12.16,19.5a.433.433,0,0,1-.186.042.614.614,0,0,1-.173-.007l-.294-.149a4,4,0,0,1-.8-.612,11.958,11.958,0,0,1-1.2-1.343,17.054,17.054,0,0,1-1.5-2.342,16.827,16.827,0,0,1-1.221-2.478,11.424,11.424,0,0,1-.517-1.718A4.672,4.672,0,0,1,6.152,9.57a.631.631,0,0,1,.089-.177.431.431,0,0,1,.133-.138l1.564-.883a1.615,1.615,0,0,0,.647-.681A1.261,1.261,0,0,0,8.7,6.782L7.442.968a1.8,1.8,0,0,0-.3-.58A.967.967,0,0,0,6.623.041a1.142,1.142,0,0,0-.9.128l-4.246,2.4a1.94,1.94,0,0,0-.588.469A3.559,3.559,0,0,0,.306,4.176,6.418,6.418,0,0,0,.062,5.44,13.284,13.284,0,0,0,.016,7.446,16.3,16.3,0,0,0,.391,10.16a24.411,24.411,0,0,0,1.039,3.424,28.382,28.382,0,0,0,1.98,4.1,27,27,0,0,0,3.173,4.65,22.6,22.6,0,0,0,2.953,2.88,12.078,12.078,0,0,0,2.375,1.522,10.433,10.433,0,0,0,1.972.7,2.258,2.258,0,0,0,.774-.027,1.935,1.935,0,0,0,.706-.261L19.6,24.775a1.184,1.184,0,0,0,.628-.9" transform="translate(0 0)" fill="#003a69"/>
    </g>
  </g>
</svg>
